<svg version="1.1" id="Layer_1" xmlns="http://www.w3.org/2000/svg" xmlns:xlink="http://www.w3.org/1999/xlink" x="0px" y="0px"
	 width="100%" viewBox="0 0 200 200" enable-background="new 0 0 200 200" xml:space="preserve">
<path fill="#476F4C" opacity="1.000000" stroke="none" 
	d="
M118.000000,201.000000 
	C78.690948,201.000000 39.881901,201.000000 1.036424,201.000000 
	C1.036424,134.399323 1.036424,67.798615 1.036424,1.098956 
	C67.558884,1.098956 134.117950,1.098956 200.838516,1.098956 
	C200.838516,67.666351 200.838516,134.333145 200.838516,201.000000 
	C173.465561,201.000000 145.982788,201.000000 118.000000,201.000000 
M42.982479,65.823334 
	C42.818356,65.533165 42.654232,65.242989 42.352562,65.058640 
	C42.352562,65.058640 42.013924,64.899986 41.363140,64.432312 
	C41.233757,64.198593 41.104378,63.964886 40.526722,63.186119 
	C36.887146,60.437809 35.267651,62.323345 33.588249,65.722870 
	C29.969084,73.048973 25.865522,80.134888 22.186966,87.433395 
	C21.556528,88.684235 22.048540,90.500816 22.208267,92.796341 
	C22.516937,94.231834 22.734686,95.694267 23.150640,97.097969 
	C24.637184,102.114540 30.518549,106.117599 34.399830,104.431129 
	C36.414158,103.555878 37.998531,101.691116 39.921982,101.277458 
	C40.969124,115.658707 44.934517,128.897995 54.298573,139.957397 
	C53.432362,140.646484 52.630047,141.441513 51.690121,142.008377 
	C41.500465,148.153748 31.322500,154.320084 21.057430,160.337555 
	C18.845367,161.634277 16.962408,162.628677 19.394100,166.009293 
	C20.586884,166.486710 21.876640,167.538025 22.957882,167.355331 
	C38.849960,164.669998 53.262920,158.245667 67.066444,150.357285 
	C72.351768,152.963394 77.637100,155.569489 82.531631,158.740219 
	C74.356552,161.848785 66.152534,164.884979 58.032486,168.131210 
	C56.531200,168.731400 55.369076,170.179977 54.080185,171.114639 
	C54.080185,171.114639 54.200005,171.153336 53.372490,170.997147 
	C51.454025,171.315018 49.511097,171.535217 47.630939,172.006073 
	C47.009235,172.161774 46.549347,172.963608 46.015469,173.470032 
	C46.650444,173.999466 47.285423,174.528900 47.955635,175.837692 
	C47.808018,176.332230 47.660404,176.826752 47.530144,177.414749 
	C47.658737,177.513397 47.664570,177.651443 48.368935,177.709442 
	C50.625980,178.251862 52.904800,179.338379 55.136559,179.249054 
	C70.441628,178.636429 85.132660,175.448364 97.939247,166.617828 
	C102.538979,163.446167 106.064789,164.117249 110.048973,167.086914 
	C116.104599,171.600571 122.059784,176.294937 128.435684,180.312622 
	C131.417221,182.191422 135.257141,183.517776 138.753113,183.625076 
	C151.399109,184.013184 164.072861,183.506210 176.717941,183.908646 
	C181.938370,184.074768 184.658813,182.923447 183.467072,176.802155 
	C181.618134,176.208511 179.769180,175.614868 178.001999,174.993484 
	C178.001999,174.993484 178.030136,175.075119 177.529480,174.567261 
	C169.088974,172.081650 160.648468,169.596039 151.549393,166.722488 
	C144.305573,164.250473 137.029938,161.865677 129.840363,159.244827 
	C128.054153,158.593689 126.546356,157.178787 125.267067,155.349777 
	C126.548706,154.385788 127.741646,153.264816 129.126007,152.482605 
	C140.326935,146.153687 148.714050,137.203766 154.097717,125.536713 
	C160.136810,112.449219 160.940506,98.834465 158.580811,84.712517 
	C161.966080,84.760117 165.428635,84.369812 168.719742,84.950790 
	C174.698013,86.006119 177.391006,83.401657 175.663498,76.899101 
	C175.404297,76.617393 175.145111,76.335686 174.913925,76.134399 
	C174.913925,76.134399 174.833115,76.161263 174.780685,75.528488 
	C174.198685,75.006752 173.616669,74.485016 173.000000,73.996239 
	C173.000000,73.996239 173.037018,73.969910 172.920197,73.400482 
	C172.551559,72.972878 172.182922,72.545280 171.813080,72.233315 
	C171.813080,72.233315 171.697433,72.234299 171.771851,71.509018 
	C170.433609,70.453751 169.095383,69.398483 167.684387,68.331085 
	C167.684387,68.331085 167.666153,68.259621 167.699738,67.583832 
	C167.051559,67.150696 166.403366,66.717560 165.776566,66.185143 
	C165.776566,66.185143 165.875275,66.208992 165.581665,65.725868 
	C165.086258,65.485893 164.590866,65.245911 163.715927,64.427055 
	C161.442764,62.908474 159.169617,61.389896 156.332886,59.374897 
	C151.272202,58.881443 146.211517,58.387985 140.827362,57.304699 
	C139.102600,55.805595 137.377853,54.306496 136.155823,52.316925 
	C137.532791,51.399109 139.453735,50.770390 140.137375,49.484089 
	C140.854996,48.133846 141.140778,45.396038 140.313416,44.572380 
	C135.284760,39.566315 130.284790,34.609371 125.503754,29.315741 
	C120.057884,23.285994 111.911324,19.809685 102.904144,18.457750 
	C101.015739,19.166599 98.547607,19.343319 97.330956,20.668779 
	C87.887741,30.956472 75.779907,36.347931 62.618992,39.509659 
	C57.892082,40.645237 56.678074,42.591034 57.531414,47.241245 
	C52.149189,51.747543 55.671787,55.897438 57.183376,60.060612 
	C53.724335,62.659306 49.780041,64.948738 49.591541,70.089592 
	C48.029263,69.333313 46.466988,68.577034 44.947243,67.872490 
	C44.947243,67.872490 44.865696,67.730743 44.079998,67.162239 
	C43.912403,66.885803 43.744808,66.609375 43.637486,66.373024 
	C43.637486,66.373024 43.744385,66.471199 42.982479,65.823334 
z"/>
<path fill="#060505" opacity="1.000000" stroke="none" 
	d="
M156.896454,59.871323 
	C159.169617,61.389896 161.442764,62.908474 164.000092,65.000107 
	C164.814606,65.785095 165.344940,65.997047 165.875275,66.208992 
	C165.875275,66.208992 165.776566,66.185143 165.837234,66.518021 
	C166.487320,67.320465 167.076736,67.790039 167.666153,68.259621 
	C167.666153,68.259621 167.684387,68.331085 167.826645,68.629807 
	C169.211746,70.030457 170.454590,71.132378 171.697433,72.234299 
	C171.697433,72.234299 171.813080,72.233315 171.818237,72.475998 
	C172.227936,73.135765 172.632477,73.552841 173.037018,73.969910 
	C173.037018,73.969910 173.000000,73.996239 173.087769,74.269310 
	C173.728058,75.082008 174.280594,75.621635 174.833115,76.161263 
	C174.833115,76.161263 174.913925,76.134399 174.951599,76.389587 
	C175.279327,76.911888 175.569397,77.178986 175.859451,77.446091 
	C177.391006,83.401657 174.698013,86.006119 168.719742,84.950790 
	C165.428635,84.369812 161.966080,84.760117 157.765808,84.800293 
	C151.929153,85.967171 146.925476,87.146255 141.873138,88.054596 
	C140.620346,88.279839 138.552521,88.052559 138.044983,87.267136 
	C137.464020,86.368073 137.811630,84.390770 138.447296,83.276436 
	C140.123718,80.337669 142.174438,77.612419 144.593674,74.037338 
	C137.219940,74.037338 130.559235,74.037338 123.898529,74.037338 
	C123.811615,74.488403 123.724709,74.939461 123.637802,75.390526 
	C125.536972,76.054207 127.444420,76.695251 129.333679,77.386032 
	C134.041565,79.107391 136.028244,84.137383 133.210968,88.268326 
	C131.807922,90.325584 129.405258,91.701088 127.297256,93.520973 
	C129.927765,95.003952 132.628998,96.271873 135.047333,97.947968 
	C138.999191,100.686905 139.038300,104.918571 135.190109,107.802643 
	C133.615845,108.982506 131.826752,110.185898 129.960495,110.611115 
	C122.705849,112.264091 115.381004,113.608948 107.614975,114.988602 
	C103.326553,114.869026 99.505424,114.797951 95.684319,114.799278 
	C92.499443,114.800392 89.314590,114.886436 85.785568,114.801132 
	C81.193146,113.686600 76.944893,112.705795 72.802261,111.403656 
	C74.262093,110.831192 75.616295,110.580063 77.534294,110.224373 
	C74.803940,106.971596 71.705696,104.421143 70.214050,101.140259 
	C69.034531,98.545883 69.828323,95.054359 69.745789,91.961243 
	C71.995468,92.243568 74.419930,92.088219 76.457397,92.901901 
	C80.356194,94.458923 84.034882,96.567108 87.804909,98.446564 
	C85.415031,94.149452 82.188011,90.678261 79.616745,86.775085 
	C78.469315,85.033295 78.640335,82.422943 78.622253,80.157349 
	C84.641495,81.029114 90.283318,81.792091 95.852867,82.913940 
	C101.992249,84.150566 104.028976,88.485016 100.968704,93.822418 
	C99.815498,95.833740 97.922226,97.420731 96.366318,99.201157 
	C96.507812,99.587624 96.649315,99.974098 96.790810,100.360565 
	C102.122070,99.928780 107.453323,99.496986 113.032516,99.045113 
	C110.182007,88.878181 110.324577,88.440765 115.884048,88.392891 
	C112.610634,84.209770 109.416794,80.076248 106.135506,76.013359 
	C105.796478,75.593582 104.908409,75.363640 104.322449,75.434914 
	C95.514160,76.506218 86.713821,77.642868 77.455856,78.820145 
	C71.066040,79.434769 65.142365,80.185074 59.195496,80.507080 
	C50.315140,80.987915 44.657471,85.044212 42.638256,93.961693 
	C42.138584,96.168388 40.754608,98.174850 39.777138,100.273361 
	C37.998531,101.691116 36.414158,103.555878 34.399830,104.431129 
	C30.518549,106.117599 24.637184,102.114540 23.150640,97.097969 
	C22.734686,95.694267 22.516937,94.231834 22.280315,92.124588 
	C26.881689,83.532173 31.574526,75.697998 35.838741,67.637085 
	C37.086166,65.279007 37.721329,63.047897 40.974995,63.731174 
	C41.104378,63.964886 41.233757,64.198593 41.625366,64.532028 
	C41.887592,64.631752 42.253056,64.626549 42.253056,64.626549 
	C42.253056,64.626549 42.490112,64.952820 42.490112,64.952820 
	C42.654232,65.242989 42.818356,65.533165 43.309719,66.163033 
	C43.636959,66.502731 43.577217,66.332947 43.577217,66.332947 
	C43.744808,66.609375 43.912403,66.885803 44.535076,67.318970 
	C45.060017,67.628632 45.129883,67.781570 45.199745,67.934509 
	C45.101398,67.896591 45.003056,67.858673 44.904709,67.820755 
	C46.466988,68.577034 48.029263,69.333313 50.452339,70.160995 
	C55.816883,69.457603 60.320625,68.682800 65.129150,68.151581 
	C67.629944,67.933502 69.825974,67.471855 72.442871,66.985992 
	C77.960709,66.401222 83.057671,65.840675 88.434006,65.470123 
	C91.233238,65.037567 93.753090,64.415009 96.272949,63.792450 
	C96.208969,63.215302 96.144997,62.638157 96.081017,62.061008 
	C94.385078,62.061008 92.689140,62.061008 90.958176,62.050186 
	C90.923157,62.039364 90.939247,61.967838 90.870117,61.809021 
	C90.684982,61.440327 90.512047,61.301434 90.121574,61.147118 
	C89.960976,61.060715 89.795944,60.735451 89.751549,60.608162 
	C89.601425,60.321075 89.453514,60.228603 89.107941,60.126465 
	C88.952484,60.049469 88.799210,59.738190 88.757187,59.613148 
	C88.613045,59.329716 88.468216,59.240421 88.112717,59.123962 
	C87.944756,59.027706 87.767342,58.683563 87.751877,58.580856 
	C87.736412,58.478149 87.392326,58.296646 87.187958,58.130135 
	C86.897285,57.810532 86.810982,57.657440 86.727524,57.439606 
	C86.730362,57.374866 86.509964,57.290638 86.276581,57.128349 
	C85.937149,56.809006 85.831100,56.651947 85.729324,56.421356 
	C85.733597,56.347816 85.490433,56.203503 85.206024,55.963726 
	C84.209503,54.725395 83.497391,53.726837 82.859322,52.333450 
	C82.512550,48.047962 84.310608,46.566891 88.104156,46.983662 
	C89.717896,47.160957 91.372330,46.967918 93.026680,46.946606 
	C93.045090,46.950031 93.053482,46.986523 93.221542,47.275803 
	C94.798454,48.020744 96.207298,48.476410 97.805939,49.006485 
	C97.995735,49.080891 98.232826,49.412582 98.255211,49.510872 
	C98.277596,49.609165 98.617073,49.795738 98.796867,49.922356 
	C98.976662,50.048973 99.169762,50.444122 99.182205,50.514091 
	C99.194649,50.584064 99.417984,50.722332 99.638199,50.903770 
	C99.940987,51.256577 100.023552,51.427948 100.122101,51.804779 
	C100.412796,52.315128 100.687485,52.620022 101.019363,52.942879 
	C101.076546,52.960850 101.046097,53.076797 101.067612,53.344666 
	C101.364655,54.055347 101.640182,54.498158 101.980537,54.965076 
	C102.045364,54.989182 102.000008,55.119858 101.988106,55.509399 
	C102.000511,56.939846 102.024826,57.980759 102.027939,59.019737 
	C102.006737,59.017807 102.046005,59.039673 101.839233,59.186069 
	C101.411201,59.773872 101.189941,60.215279 100.923233,60.781410 
	C100.877777,60.906139 100.620529,60.971794 100.351532,61.091068 
	C99.885834,62.145893 99.689140,63.081440 99.492455,64.016983 
	C99.995338,63.699371 100.498222,63.381756 101.395981,63.066025 
	C102.673836,62.797195 103.890213,62.804268 104.385155,62.210239 
	C107.367386,58.631001 110.184303,54.914013 113.374542,51.103622 
	C116.533173,46.197853 119.373795,41.431587 122.214417,36.665321 
	C121.848953,36.377331 121.483490,36.089340 121.118034,35.801346 
	C120.310921,36.140453 119.503815,36.479561 118.275887,36.765358 
	C110.645714,37.840347 103.436356,38.968636 95.829086,40.070229 
	C93.297585,40.624153 91.164009,41.204777 88.774475,41.860001 
	C88.343498,41.965622 88.168488,41.996635 87.556351,42.010979 
	C83.102768,42.972660 79.086319,43.951012 75.099113,44.956615 
	C75.128365,44.983864 75.080482,45.047894 74.639435,44.964600 
	C69.667587,45.233402 65.136795,45.585503 60.497986,45.957981 
	C60.389977,45.978359 60.178829,46.039547 60.072521,45.652664 
	C59.925938,41.152859 63.572491,41.807953 65.745186,41.259857 
	C80.454819,37.549118 92.735504,29.867006 103.237946,19.107548 
	C111.911324,19.809685 120.057884,23.285994 125.503754,29.315741 
	C130.284790,34.609371 135.284760,39.566315 140.313416,44.572380 
	C141.140778,45.396038 140.854996,48.133846 140.137375,49.484089 
	C139.453735,50.770390 137.532791,51.399109 135.568939,52.639244 
	C130.883057,54.767426 126.784050,56.573288 122.685043,58.379154 
	C122.830139,58.925850 122.975243,59.472549 123.120338,60.019245 
	C128.962341,60.019245 134.804352,60.019245 141.135208,60.086216 
	C146.714859,60.059231 151.805664,59.965275 156.896454,59.871323 
z"/>
<path fill="#050505" opacity="1.000000" stroke="none" 
	d="
M72.696640,111.724983 
	C76.944893,112.705795 81.193146,113.686600 86.123802,114.862610 
	C88.469582,116.398170 89.998375,117.978699 91.835876,119.008278 
	C93.522415,119.953300 95.616234,120.988907 97.401138,120.794693 
	C103.961052,120.080894 110.467110,118.872131 117.375610,117.925583 
	C122.940704,119.916695 128.360275,120.995262 132.510361,125.417274 
	C135.621063,128.731781 135.821838,131.490128 133.002487,134.453690 
	C129.803970,137.815842 126.171097,140.760803 122.801979,143.965912 
	C120.218834,146.423294 117.751991,149.002930 115.233414,151.528198 
	C115.334549,152.127274 115.435677,152.726364 115.536812,153.325455 
	C118.661407,154.255295 121.785995,155.185120 124.910591,156.114960 
	C126.546356,157.178787 128.054153,158.593689 129.840363,159.244827 
	C137.029938,161.865677 144.305573,164.250473 152.124680,167.133621 
	C161.143356,170.054871 169.586746,172.564987 178.030136,175.075119 
	C178.030136,175.075119 178.001999,174.993484 178.134720,175.325745 
	C180.183838,176.206177 182.100250,176.754333 184.016647,177.302475 
	C184.658813,182.923447 181.938370,184.074768 176.717941,183.908646 
	C164.072861,183.506210 151.399109,184.013184 138.753113,183.625076 
	C135.257141,183.517776 131.417221,182.191422 128.435684,180.312622 
	C122.059784,176.294937 116.104599,171.600571 110.048973,167.086914 
	C106.064789,164.117249 102.538979,163.446167 97.939247,166.617828 
	C85.132660,175.448364 70.441628,178.636429 55.136559,179.249054 
	C52.904800,179.338379 50.625980,178.251862 47.942326,177.643341 
	C47.515717,177.577225 47.512783,177.321289 47.512787,177.321289 
	C47.660404,176.826752 47.808018,176.332230 48.141296,175.139114 
	C50.284645,173.344803 52.242325,172.249069 54.200005,171.153336 
	C54.200005,171.153336 54.080185,171.114639 54.382351,171.474030 
	C63.189259,168.693573 71.740219,165.670776 80.170357,162.341980 
	C82.672920,161.353806 84.835747,159.505234 87.456635,157.909241 
	C89.235657,156.595062 90.712303,155.422546 92.385551,154.093918 
	C90.721863,152.524673 89.410080,151.328629 88.143692,150.086304 
	C78.427925,140.555054 78.198792,140.537735 67.413719,148.899277 
	C67.161446,149.094864 66.993469,149.399185 66.786163,149.652771 
	C53.262920,158.245667 38.849960,164.669998 22.957882,167.355331 
	C21.876640,167.538025 20.586884,166.486710 19.475067,165.554840 
	C21.972557,163.453262 24.260046,161.562866 26.827839,160.200974 
	C38.215305,154.161377 49.686661,148.278687 59.270844,138.939514 
	C62.264832,135.813416 64.916168,132.747879 67.732719,129.392761 
	C68.049980,128.941071 68.202034,128.778961 68.443253,128.614258 
	C68.532433,128.611679 68.623566,128.309891 68.810410,128.009003 
	C69.409592,127.137108 69.821930,126.566124 70.570740,125.863144 
	C74.775307,121.575478 72.489304,116.587700 72.716644,111.903534 
	C72.662300,111.859978 72.696640,111.724983 72.696640,111.724983 
M92.745277,132.065826 
	C90.793434,132.453522 88.841583,132.841202 85.905724,133.424347 
	C90.844284,136.495804 94.829597,139.047379 98.907257,141.441681 
	C99.622437,141.861618 101.230095,142.034622 101.568413,141.620834 
	C104.142548,138.472427 106.503578,135.149780 109.750862,130.777496 
	C103.176086,131.285736 98.387428,131.655914 92.745277,132.065826 
z"/>
<path fill="#F30303" opacity="1.000000" stroke="none" 
	d="
M125.088829,155.732361 
	C121.785995,155.185120 118.661407,154.255295 115.536812,153.325455 
	C115.435677,152.726364 115.334549,152.127274 115.233414,151.528198 
	C117.751991,149.002930 120.218834,146.423294 122.801979,143.965912 
	C126.171097,140.760803 129.803970,137.815842 133.002487,134.453690 
	C135.821838,131.490128 135.621063,128.731781 132.510361,125.417274 
	C128.360275,120.995262 122.940704,119.916695 117.225708,117.587624 
	C113.823189,116.471954 110.952736,115.770210 108.082275,115.068466 
	C115.381004,113.608948 122.705849,112.264091 129.960495,110.611115 
	C131.826752,110.185898 133.615845,108.982506 135.190109,107.802643 
	C139.038300,104.918571 138.999191,100.686905 135.047333,97.947968 
	C132.628998,96.271873 129.927765,95.003952 127.297256,93.520973 
	C129.405258,91.701088 131.807922,90.325584 133.210968,88.268326 
	C136.028244,84.137383 134.041565,79.107391 129.333679,77.386032 
	C127.444420,76.695251 125.536972,76.054207 123.637802,75.390526 
	C123.724709,74.939461 123.811615,74.488403 123.898529,74.037338 
	C130.559235,74.037338 137.219940,74.037338 144.593674,74.037338 
	C142.174438,77.612419 140.123718,80.337669 138.447296,83.276436 
	C137.811630,84.390770 137.464020,86.368073 138.044983,87.267136 
	C138.552521,88.052559 140.620346,88.279839 141.873138,88.054596 
	C146.925476,87.146255 151.929153,85.967171 157.350174,84.888504 
	C160.940506,98.834465 160.136810,112.449219 154.097717,125.536713 
	C148.714050,137.203766 140.326935,146.153687 129.126007,152.482605 
	C127.741646,153.264816 126.548706,154.385788 125.088829,155.732361 
z"/>
<path fill="#F10707" opacity="1.000000" stroke="none" 
	d="
M70.234261,125.995132 
	C69.821930,126.566124 69.409592,127.137108 68.713303,127.988716 
	C68.429352,128.269333 68.354080,128.616837 68.354080,128.616837 
	C68.202034,128.778961 68.049980,128.941071 67.493195,129.479218 
	C64.261131,132.606018 61.433819,135.356781 58.314857,138.162292 
	C57.008804,138.730743 55.994396,139.244415 54.979988,139.758072 
	C44.934517,128.897995 40.969124,115.658707 39.849556,100.775406 
	C40.754608,98.174850 42.138584,96.168388 42.638256,93.961693 
	C44.657471,85.044212 50.315140,80.987915 59.195496,80.507080 
	C65.142365,80.185074 71.066040,79.434769 77.525261,79.181992 
	C78.104607,79.727501 78.158791,79.967140 78.212982,80.206787 
	C78.640335,82.422943 78.469315,85.033295 79.616745,86.775085 
	C82.188011,90.678261 85.415031,94.149452 87.804909,98.446564 
	C84.034882,96.567108 80.356194,94.458923 76.457397,92.901901 
	C74.419930,92.088219 71.995468,92.243568 69.745789,91.961243 
	C69.828323,95.054359 69.034531,98.545883 70.214050,101.140259 
	C71.705696,104.421143 74.803940,106.971596 77.534294,110.224373 
	C75.616295,110.580063 74.262093,110.831192 72.802261,111.403656 
	C72.696640,111.724983 72.662300,111.859978 72.328659,111.956863 
	C71.676506,113.733826 71.259644,115.402382 71.061203,117.096527 
	C70.714729,120.054428 70.502655,123.028084 70.234261,125.995132 
M56.987312,88.372337 
	C53.401882,92.691086 49.565720,96.833458 46.346645,101.409904 
	C44.934219,103.417900 43.662216,106.627731 44.261402,108.744003 
	C46.176590,115.508255 54.632042,117.148369 59.644520,112.147377 
	C65.096825,106.707565 67.584259,92.352951 64.301819,85.268105 
	C63.092934,82.658821 61.482094,82.012260 59.436588,84.401093 
	C58.582928,85.398033 57.938656,86.574280 56.987312,88.372337 
z"/>
<path fill="#0A0808" opacity="1.000000" stroke="none" 
	d="
M60.178829,46.039547 
	C60.178829,46.039547 60.389977,45.978359 60.660393,46.292374 
	C64.141983,48.067196 67.353165,49.528004 70.864624,51.088043 
	C78.527580,56.172356 78.778198,58.981411 72.498337,65.021706 
	C72.084694,65.419571 72.169197,66.335342 72.021996,67.010208 
	C69.825974,67.471855 67.629944,67.933502 65.116791,67.812218 
	C62.548378,64.850624 60.297092,62.471962 58.045803,60.093300 
	C55.671787,55.897438 52.149189,51.747543 58.110069,47.037224 
	C59.185425,46.568649 59.682129,46.304096 60.178829,46.039547 
z"/>
<path fill="#F00606" opacity="1.000000" stroke="none" 
	d="
M66.926308,150.005035 
	C66.993469,149.399185 67.161446,149.094864 67.413719,148.899277 
	C78.198792,140.537735 78.427925,140.555054 88.143692,150.086304 
	C89.410080,151.328629 90.721863,152.524673 92.385551,154.093918 
	C90.712303,155.422546 89.235657,156.595062 87.037979,157.824112 
	C85.185432,157.978958 84.053932,158.077271 82.922432,158.175598 
	C77.637100,155.569489 72.351768,152.963394 66.926308,150.005035 
z"/>
<path fill="#C6C3C3" opacity="1.000000" stroke="none" 
	d="
M60.072521,45.652664 
	C59.682129,46.304096 59.185425,46.568649 58.405838,46.841743 
	C56.678074,42.591034 57.892082,40.645237 62.618992,39.509659 
	C75.779907,36.347931 87.887741,30.956472 97.330956,20.668779 
	C98.547607,19.343319 101.015739,19.166599 103.071045,18.782650 
	C92.735504,29.867006 80.454819,37.549118 65.745186,41.259857 
	C63.572491,41.807953 59.925938,41.152859 60.072521,45.652664 
z"/>
<path fill="#C6C3C3" opacity="1.000000" stroke="none" 
	d="
M54.639282,139.857727 
	C55.994396,139.244415 57.008804,138.730743 58.349800,138.401825 
	C58.676384,138.586594 58.928192,139.000076 58.928192,139.000076 
	C49.686661,148.278687 38.215305,154.161377 26.827839,160.200974 
	C24.260046,161.562866 21.972557,163.453262 19.295197,165.265106 
	C16.962408,162.628677 18.845367,161.634277 21.057430,160.337555 
	C31.322500,154.320084 41.500465,148.153748 51.690121,142.008377 
	C52.630047,141.441513 53.432362,140.646484 54.639282,139.857727 
z"/>
<path fill="#C5C2C2" opacity="1.000000" stroke="none" 
	d="
M40.750858,63.458649 
	C37.721329,63.047897 37.086166,65.279007 35.838741,67.637085 
	C31.574526,75.697998 26.881689,83.532173 22.187199,91.754440 
	C22.048540,90.500816 21.556528,88.684235 22.186966,87.433395 
	C25.865522,80.134888 29.969084,73.048973 33.588249,65.722870 
	C35.267651,62.323345 36.887146,60.437809 40.750858,63.458649 
z"/>
<path fill="#EF0808" opacity="1.000000" stroke="none" 
	d="
M140.646347,60.019245 
	C134.804352,60.019245 128.962341,60.019245 123.120338,60.019245 
	C122.975243,59.472549 122.830139,58.925850 122.685043,58.379154 
	C126.784050,56.573288 130.883057,54.767426 135.317581,52.884476 
	C137.377853,54.306496 139.102600,55.805595 140.864258,57.943314 
	C140.816223,59.061031 140.731277,59.540138 140.646347,60.019245 
z"/>
<path fill="#EF0B0B" opacity="1.000000" stroke="none" 
	d="
M57.614590,60.076958 
	C60.297092,62.471962 62.548378,64.850624 64.812019,67.568649 
	C60.320625,68.682800 55.816883,69.457603 50.982834,70.270203 
	C49.780041,64.948738 53.724335,62.659306 57.614590,60.076958 
z"/>
<path fill="#C6C5C5" opacity="1.000000" stroke="none" 
	d="
M82.727036,158.457916 
	C84.053932,158.077271 85.185432,157.978958 86.735596,157.965790 
	C84.835747,159.505234 82.672920,161.353806 80.170357,162.341980 
	C71.740219,165.670776 63.189259,168.693573 54.367466,171.535217 
	C55.369076,170.179977 56.531200,168.731400 58.032486,168.131210 
	C66.152534,164.884979 74.356552,161.848785 82.727036,158.457916 
z"/>
<path fill="#7C7B7B" opacity="1.000000" stroke="none" 
	d="
M177.779816,174.821198 
	C169.586746,172.564987 161.143356,170.054871 152.453964,167.327591 
	C160.648468,169.596039 169.088974,172.081650 177.779816,174.821198 
z"/>
<path fill="#939393" opacity="1.000000" stroke="none" 
	d="
M141.135208,60.086216 
	C140.731277,59.540138 140.816223,59.061031 141.026001,58.238228 
	C146.211517,58.387985 151.272202,58.881443 156.614670,59.623108 
	C151.805664,59.965275 146.714859,60.059231 141.135208,60.086216 
z"/>
<path fill="#B8B7B7" opacity="1.000000" stroke="none" 
	d="
M53.786247,171.075241 
	C52.242325,172.249069 50.284645,173.344803 48.123680,174.749420 
	C47.285423,174.528900 46.650444,173.999466 46.015472,173.470032 
	C46.549347,172.963608 47.009235,172.161774 47.630939,172.006073 
	C49.511097,171.535217 51.454025,171.315018 53.786247,171.075241 
z"/>
<path fill="#584E4E" opacity="1.000000" stroke="none" 
	d="
M171.734650,71.871658 
	C170.454590,71.132378 169.211746,70.030457 167.863022,68.635880 
	C169.095383,69.398483 170.433609,70.453751 171.734650,71.871658 
z"/>
<path fill="#7C7B7B" opacity="1.000000" stroke="none" 
	d="
M183.741852,177.052307 
	C182.100250,176.754333 180.183838,176.206177 178.093842,175.339615 
	C179.769180,175.614868 181.618134,176.208511 183.741852,177.052307 
z"/>
<path fill="#584E4E" opacity="1.000000" stroke="none" 
	d="
M167.682953,67.921722 
	C167.076736,67.790039 166.487320,67.320465 165.826538,66.567657 
	C166.403366,66.717560 167.051559,67.150696 167.682953,67.921722 
z"/>
<path fill="#C5C2C2" opacity="1.000000" stroke="none" 
	d="
M44.925976,67.846619 
	C45.003056,67.858673 45.101398,67.896591 45.199745,67.934509 
	C45.129883,67.781570 45.060017,67.628632 44.927925,67.603218 
	C44.865696,67.730743 44.947243,67.872490 44.925976,67.846619 
z"/>
<path fill="#584E4E" opacity="1.000000" stroke="none" 
	d="
M174.806900,75.844879 
	C174.280594,75.621635 173.728058,75.082008 173.105103,74.252831 
	C173.616669,74.485016 174.198685,75.006752 174.806900,75.844879 
z"/>
<path fill="#C5C2C2" opacity="1.000000" stroke="none" 
	d="
M42.421337,65.005730 
	C42.490112,64.952820 42.253056,64.626549 42.253056,64.626549 
	C42.253056,64.626549 41.887592,64.631752 41.950760,64.765869 
	C42.013924,64.899986 42.352562,65.058640 42.421337,65.005730 
z"/>
<path fill="#584E4E" opacity="1.000000" stroke="none" 
	d="
M165.728470,65.967430 
	C165.344940,65.997047 164.814606,65.785095 164.189865,65.289536 
	C164.590866,65.245911 165.086258,65.485893 165.728470,65.967430 
z"/>
<path fill="#584E4E" opacity="1.000000" stroke="none" 
	d="
M172.978607,73.685196 
	C172.632477,73.552841 172.227936,73.135765 171.818848,72.418182 
	C172.182922,72.545280 172.551559,72.972878 172.978607,73.685196 
z"/>
<path fill="#B8B7B7" opacity="1.000000" stroke="none" 
	d="
M47.521461,177.368011 
	C47.512783,177.321289 47.515717,177.577225 47.531677,177.703064 
	C47.664570,177.651443 47.658737,177.513397 47.521461,177.368011 
z"/>
<path fill="#584E4E" opacity="1.000000" stroke="none" 
	d="
M175.761475,77.172592 
	C175.569397,77.178986 175.279327,76.911888 174.937592,76.349380 
	C175.145111,76.335686 175.404297,76.617393 175.761475,77.172592 
z"/>
<path fill="#C5C2C2" opacity="1.000000" stroke="none" 
	d="
M43.607353,66.352982 
	C43.577217,66.332947 43.636959,66.502731 43.690674,66.486969 
	C43.744385,66.471199 43.637486,66.373024 43.607353,66.352982 
z"/>
<path fill="#ED0909" opacity="1.000000" stroke="none" 
	d="
M78.622253,80.157349 
	C78.158791,79.967140 78.104607,79.727501 77.981018,79.126007 
	C86.713821,77.642868 95.514160,76.506218 104.322449,75.434914 
	C104.908409,75.363640 105.796478,75.593582 106.135506,76.013359 
	C109.416794,80.076248 112.610634,84.209770 115.884048,88.392891 
	C110.324577,88.440765 110.182007,88.878181 113.032516,99.045113 
	C107.453323,99.496986 102.122070,99.928780 96.790810,100.360565 
	C96.649315,99.974098 96.507812,99.587624 96.366318,99.201157 
	C97.922226,97.420731 99.815498,95.833740 100.968704,93.822418 
	C104.028976,88.485016 101.992249,84.150566 95.852867,82.913940 
	C90.283318,81.792091 84.641495,81.029114 78.622253,80.157349 
z"/>
<path fill="#F30808" opacity="1.000000" stroke="none" 
	d="
M113.056541,51.243122 
	C110.184303,54.914013 107.367386,58.631001 104.385155,62.210239 
	C103.890213,62.804268 102.673836,62.797195 101.218254,62.745880 
	C100.637291,61.939835 100.628914,61.455814 100.620529,60.971794 
	C100.620529,60.971794 100.877777,60.906139 101.166016,60.677414 
	C101.651505,59.979015 101.848755,59.509346 102.046005,59.039673 
	C102.046005,59.039673 102.006737,59.017807 102.239143,58.794250 
	C102.314369,57.420414 102.157188,56.270138 102.000008,55.119858 
	C102.000008,55.119858 102.045364,54.989182 101.977226,54.692375 
	C101.621422,53.955975 101.333763,53.516388 101.046097,53.076797 
	C101.046097,53.076797 101.076546,52.960850 101.020081,52.722542 
	C100.677780,52.189262 100.391945,51.894287 100.106110,51.599312 
	C100.023552,51.427948 99.940987,51.256577 99.680931,50.815369 
	C99.503441,50.545532 99.169762,50.444122 99.169762,50.444122 
	C99.169762,50.444122 98.976662,50.048973 98.809921,49.803680 
	C98.643188,49.558384 98.232826,49.412582 98.232826,49.412582 
	C98.232826,49.412582 97.995735,49.080891 97.647552,48.739845 
	C95.884071,47.928040 94.468781,47.457283 93.053482,46.986526 
	C93.053482,46.986523 93.045090,46.950031 92.813057,46.612373 
	C89.707619,45.771118 86.834206,45.267513 83.960800,44.763912 
	C83.964775,44.423336 83.968750,44.082756 83.972733,43.742180 
	C85.312981,43.170673 86.653236,42.599163 87.993484,42.027657 
	C88.168488,41.996635 88.343498,41.965622 89.169769,41.925552 
	C91.887733,41.549896 93.954445,41.183296 96.479523,40.866627 
	C103.229370,41.611115 109.520844,42.305668 115.908279,43.364571 
	C115.021675,46.233650 114.039108,48.738388 113.056541,51.243122 
z"/>
<path fill="#EE0808" opacity="1.000000" stroke="none" 
	d="
M72.442871,66.985992 
	C72.169197,66.335342 72.084694,65.419571 72.498337,65.021706 
	C78.778198,58.981411 78.527580,56.172356 70.789719,50.738113 
	C71.969849,48.541931 73.525162,46.794914 75.080482,45.047894 
	C75.080482,45.047894 75.128365,44.983864 75.533783,44.980759 
	C77.514580,44.977654 79.089958,44.977654 80.073524,44.977654 
	C81.110596,47.941761 81.947937,50.335018 82.785278,52.728279 
	C83.497391,53.726837 84.209503,54.725395 85.164864,56.055244 
	C85.408104,56.386539 85.725060,56.494892 85.725060,56.494892 
	C85.831100,56.651947 85.937149,56.809006 86.236679,57.209213 
	C86.430153,57.452362 86.724678,57.504345 86.724678,57.504345 
	C86.810982,57.657440 86.897285,57.810532 87.167221,58.247875 
	C87.350845,58.532124 87.767342,58.683563 87.767342,58.683563 
	C87.767342,58.683563 87.944756,59.027706 88.116226,59.270966 
	C88.400772,59.719540 88.571274,59.794193 88.799210,59.738190 
	C88.799210,59.738190 88.952484,60.049469 89.114807,60.276108 
	C89.390968,60.711628 89.563904,60.789196 89.795944,60.735451 
	C89.795944,60.735451 89.960976,61.060715 90.149536,61.320934 
	C90.484711,61.793365 90.685089,61.922260 90.939247,61.967838 
	C90.939247,61.967838 90.923157,62.039364 91.032478,62.351234 
	C90.146080,63.535450 89.150352,64.407791 88.154625,65.280136 
	C83.057671,65.840675 77.960709,66.401222 72.442871,66.985992 
z"/>
<path fill="#EB1010" opacity="1.000000" stroke="none" 
	d="
M107.614975,114.988602 
	C110.952736,115.770210 113.823189,116.471954 116.843544,117.511658 
	C110.467110,118.872131 103.961052,120.080894 97.401138,120.794693 
	C95.616234,120.988907 93.522415,119.953300 91.835876,119.008278 
	C89.998375,117.978699 88.469582,116.398170 86.467972,114.996346 
	C89.314590,114.886436 92.499443,114.800392 95.684319,114.799278 
	C99.505424,114.797951 103.326553,114.869026 107.614975,114.988602 
z"/>
<path fill="#486249" opacity="1.000000" stroke="none" 
	d="
M115.812325,43.000221 
	C109.520844,42.305668 103.229370,41.611115 96.518463,40.683174 
	C96.099037,40.449787 96.226997,40.096928 96.226997,40.096928 
	C103.436356,38.968636 110.645714,37.840347 118.267982,37.114357 
	C117.724709,39.344513 116.768517,41.172367 115.812325,43.000221 
z"/>
<path fill="#0D0A0A" opacity="1.000000" stroke="none" 
	d="
M82.859322,52.333450 
	C81.947937,50.335018 81.110596,47.941761 80.073524,44.977654 
	C79.089958,44.977654 77.514580,44.977654 75.504532,44.953510 
	C79.086319,43.951012 83.102768,42.972660 87.556351,42.010983 
	C86.653236,42.599163 85.312981,43.170673 83.972733,43.742180 
	C83.968750,44.082756 83.964775,44.423336 83.960800,44.763912 
	C86.834206,45.267513 89.707619,45.771118 92.794647,46.608948 
	C91.372330,46.967918 89.717896,47.160957 88.104156,46.983662 
	C84.310608,46.566891 82.512550,48.047962 82.859322,52.333450 
z"/>
<path fill="#465747" opacity="1.000000" stroke="none" 
	d="
M74.639435,44.964600 
	C73.525162,46.794914 71.969849,48.541931 70.489441,50.638878 
	C67.353165,49.528004 64.141983,48.067196 60.768402,46.271996 
	C65.136795,45.585503 69.667587,45.233402 74.639435,44.964600 
z"/>
<path fill="#C0B5B5" opacity="1.000000" stroke="none" 
	d="
M115.908279,43.364571 
	C116.768517,41.172367 117.724709,39.344513 118.688797,37.167664 
	C119.503815,36.479561 120.310921,36.140453 121.118034,35.801346 
	C121.483490,36.089340 121.848953,36.377331 122.214417,36.665321 
	C119.373795,41.431587 116.533173,46.197853 113.374542,51.103622 
	C114.039108,48.738388 115.021675,46.233650 115.908279,43.364571 
z"/>
<path fill="#0D0A0A" opacity="1.000000" stroke="none" 
	d="
M88.434006,65.470131 
	C89.150352,64.407791 90.146080,63.535450 91.067505,62.362057 
	C92.689140,62.061008 94.385078,62.061008 96.081017,62.061008 
	C96.144997,62.638157 96.208969,63.215302 96.272949,63.792450 
	C93.753090,64.415009 91.233238,65.037567 88.434006,65.470131 
z"/>
<path fill="#0D0A0A" opacity="1.000000" stroke="none" 
	d="
M95.829086,40.070229 
	C96.226997,40.096928 96.099037,40.449787 96.060089,40.633240 
	C93.954445,41.183296 91.887733,41.549896 89.425728,41.850945 
	C91.164009,41.204777 93.297585,40.624153 95.829086,40.070229 
z"/>
<path fill="#0D0A0A" opacity="1.000000" stroke="none" 
	d="
M100.351532,61.091068 
	C100.628914,61.455814 100.637291,61.939835 100.823395,62.743999 
	C100.498222,63.381756 99.995338,63.699371 99.492455,64.016983 
	C99.689140,63.081440 99.885834,62.145893 100.351532,61.091068 
z"/>
<path fill="#0D0A0A" opacity="1.000000" stroke="none" 
	d="
M93.221542,47.275803 
	C94.468781,47.457283 95.884071,47.928040 97.457756,48.665436 
	C96.207298,48.476410 94.798454,48.020744 93.221542,47.275803 
z"/>
<path fill="#0D0A0A" opacity="1.000000" stroke="none" 
	d="
M101.988106,55.509399 
	C102.157188,56.270138 102.314369,57.420414 102.260345,58.796181 
	C102.024826,57.980759 102.000511,56.939846 101.988106,55.509399 
z"/>
<path fill="#0D0A0A" opacity="1.000000" stroke="none" 
	d="
M100.122101,51.804775 
	C100.391945,51.894287 100.677780,52.189262 100.962891,52.704575 
	C100.687485,52.620022 100.412796,52.315128 100.122101,51.804775 
z"/>
<path fill="#0D0A0A" opacity="1.000000" stroke="none" 
	d="
M101.839241,59.186073 
	C101.848755,59.509346 101.651505,59.979015 101.211472,60.552689 
	C101.189941,60.215279 101.411201,59.773872 101.839241,59.186073 
z"/>
<path fill="#0D0A0A" opacity="1.000000" stroke="none" 
	d="
M101.067612,53.344666 
	C101.333763,53.516388 101.621422,53.955975 101.912399,54.668266 
	C101.640182,54.498158 101.364655,54.055347 101.067612,53.344666 
z"/>
<path fill="#0D0A0A" opacity="1.000000" stroke="none" 
	d="
M85.729324,56.421356 
	C85.725060,56.494892 85.408104,56.386539 85.449265,56.295021 
	C85.490433,56.203503 85.733597,56.347816 85.729324,56.421356 
z"/>
<path fill="#0D0A0A" opacity="1.000000" stroke="none" 
	d="
M89.751549,60.608162 
	C89.563904,60.789196 89.390968,60.711628 89.270264,60.353104 
	C89.453514,60.228603 89.601425,60.321075 89.751549,60.608162 
z"/>
<path fill="#0D0A0A" opacity="1.000000" stroke="none" 
	d="
M86.727524,57.439606 
	C86.724678,57.504345 86.430153,57.452362 86.470062,57.371498 
	C86.509964,57.290638 86.730362,57.374866 86.727524,57.439606 
z"/>
<path fill="#0D0A0A" opacity="1.000000" stroke="none" 
	d="
M87.751877,58.580856 
	C87.767342,58.683563 87.350845,58.532124 87.371582,58.414383 
	C87.392326,58.296646 87.736412,58.478149 87.751877,58.580856 
z"/>
<path fill="#0D0A0A" opacity="1.000000" stroke="none" 
	d="
M88.757187,59.613148 
	C88.571274,59.794193 88.400772,59.719540 88.284195,59.367218 
	C88.468216,59.240421 88.613045,59.329716 88.757187,59.613148 
z"/>
<path fill="#0D0A0A" opacity="1.000000" stroke="none" 
	d="
M90.870117,61.809021 
	C90.685089,61.922260 90.484711,61.793365 90.310135,61.407337 
	C90.512047,61.301434 90.684982,61.440327 90.870117,61.809021 
z"/>
<path fill="#0D0A0A" opacity="1.000000" stroke="none" 
	d="
M98.255211,49.510872 
	C98.232826,49.412582 98.643188,49.558384 98.630127,49.677063 
	C98.617073,49.795738 98.277596,49.609165 98.255211,49.510872 
z"/>
<path fill="#0D0A0A" opacity="1.000000" stroke="none" 
	d="
M99.182205,50.514091 
	C99.169762,50.444122 99.503441,50.545532 99.460709,50.633934 
	C99.417984,50.722332 99.194649,50.584064 99.182205,50.514091 
z"/>
<path fill="#EB0A0A" opacity="1.000000" stroke="none" 
	d="
M93.172028,132.045959 
	C98.387428,131.655914 103.176086,131.285736 109.750862,130.777496 
	C106.503578,135.149780 104.142548,138.472427 101.568413,141.620834 
	C101.230095,142.034622 99.622437,141.861618 98.907257,141.441681 
	C94.829597,139.047379 90.844284,136.495804 85.905724,133.424347 
	C88.841583,132.841202 90.793434,132.453522 93.172028,132.045959 
z"/>
<path fill="#060505" opacity="1.000000" stroke="none" 
	d="
M70.570724,125.863144 
	C70.502655,123.028084 70.714729,120.054428 71.061203,117.096527 
	C71.259644,115.402382 71.676506,113.733826 72.383011,112.000427 
	C72.489304,116.587700 74.775307,121.575478 70.570724,125.863144 
z"/>
<path fill="#060505" opacity="1.000000" stroke="none" 
	d="
M59.270844,138.939514 
	C58.928192,139.000076 58.676384,138.586594 58.641445,138.347061 
	C61.433819,135.356781 64.261131,132.606018 67.327972,129.768799 
	C64.916168,132.747879 62.264832,135.813416 59.270844,138.939514 
z"/>
<path fill="#060505" opacity="1.000000" stroke="none" 
	d="
M68.443253,128.614258 
	C68.354080,128.616837 68.429352,128.269333 68.526459,128.289612 
	C68.623566,128.309891 68.532433,128.611679 68.443253,128.614258 
z"/>
<path fill="#0A0808" opacity="1.000000" stroke="none" 
	d="
M57.093246,88.020668 
	C57.938656,86.574280 58.582928,85.398033 59.436588,84.401093 
	C61.482094,82.012260 63.092934,82.658821 64.301819,85.268105 
	C67.584259,92.352951 65.096825,106.707565 59.644520,112.147377 
	C54.632042,117.148369 46.176590,115.508255 44.261402,108.744003 
	C43.662216,106.627731 44.934219,103.417900 46.346645,101.409904 
	C49.565720,96.833458 53.401882,92.691086 57.093246,88.020668 
z"/>
</svg>